<svg width="20" height="20" viewBox="0 0 60 61" fill="none" xmlns="http://www.w3.org/2000/svg">
    <path d="M45.7322 38.6518C46.7084 37.6756 46.7084 36.0926 45.7322 35.1163L33.5017 22.8977C31.5487 20.9467 28.3842 20.9475 26.4322 22.8995L14.2063 35.1253C13.23 36.1016 13.23 37.6846 14.2063 38.6608C15.1827 39.6373 16.7656 39.6373 17.7419 38.6608L28.2059 28.1968C29.1824 27.2206 30.7652 27.2206 31.7414 28.1968L42.1967 38.6518C43.1729 39.6281 44.7559 39.6281 45.7322 38.6518Z" fill="#0F0F0F"/>
    <path d="M45.7322 38.6518C46.7084 37.6756 46.7084 36.0926 45.7322 35.1163L33.5017 22.8977C31.5487 20.9467 28.3842 20.9475 26.4322 22.8995L14.2063 35.1253C13.23 36.1016 13.23 37.6846 14.2063 38.6608C15.1827 39.6373 16.7656 39.6373 17.7419 38.6608L28.2059 28.1968C29.1824 27.2206 30.7652 27.2206 31.7414 28.1968L42.1967 38.6518C43.1729 39.6281 44.7559 39.6281 45.7322 38.6518Z" fill="#0F0F0F"/>
</svg>
